<svg width="1200" height="600" viewBox="0 0 1200 600" fill="none" xmlns="http://www.w3.org/2000/svg">
  <defs>
    <linearGradient id="bg" x1="0" y1="0" x2="1" y2="1">
      <stop offset="0" stop-color="#0B1020"/>
      <stop offset="0.5" stop-color="#07112A"/>
      <stop offset="1" stop-color="#001B66"/>
    </linearGradient>
    <linearGradient id="glow" x1="0" y1="0" x2="0" y2="1">
      <stop offset="0" stop-color="#2B66FF" stop-opacity="0.9"/>
      <stop offset="1" stop-color="#2B66FF" stop-opacity="0"/>
    </linearGradient>
    <filter id="soft" x="-30%" y="-30%" width="160%" height="160%" color-interpolation-filters="sRGB">
      <feGaussianBlur stdDeviation="18"/>
    </filter>
  </defs>

  <rect x="0" y="0" width="1200" height="600" rx="36" fill="url(#bg)"/>
  <path d="M-50 420C120 320 260 370 390 420C540 478 710 520 910 460C1050 418 1130 350 1250 300" stroke="#2B66FF" stroke-opacity="0.55" stroke-width="6"/>
  <path d="M-50 460C120 360 260 410 390 460C540 520 710 560 910 500C1050 458 1130 390 1250 340" stroke="#8CB0FF" stroke-opacity="0.25" stroke-width="4"/>

  <circle cx="220" cy="390" r="86" fill="url(#glow)" filter="url(#soft)"/>
  <circle cx="920" cy="450" r="110" fill="url(#glow)" filter="url(#soft)"/>

  <!-- Map pin -->
  <g transform="translate(860 240)">
    <path d="M60 0C29.1 0 4 25.1 4 56C4 97 60 154 60 154C60 154 116 97 116 56C116 25.1 90.9 0 60 0Z" fill="#2B66FF"/>
    <circle cx="60" cy="56" r="22" fill="#0B1020"/>
  </g>

  <!-- Truck -->
  <g transform="translate(150 250)">
    <rect x="0" y="70" width="420" height="160" rx="22" fill="#0F172A" stroke="#2B66FF" stroke-opacity="0.45" stroke-width="2"/>
    <rect x="24" y="98" width="250" height="100" rx="16" fill="#111827" stroke="#8CB0FF" stroke-opacity="0.25"/>
    <path d="M420 120H500C520 120 536 136 536 156V214H420V120Z" fill="#0F172A" stroke="#2B66FF" stroke-opacity="0.45" stroke-width="2"/>
    <rect x="452" y="142" width="60" height="44" rx="10" fill="#111827" stroke="#8CB0FF" stroke-opacity="0.25"/>
    <circle cx="120" cy="236" r="28" fill="#0B1020" stroke="#2B66FF" stroke-width="4"/>
    <circle cx="120" cy="236" r="12" fill="#2B66FF"/>
    <circle cx="420" cy="236" r="28" fill="#0B1020" stroke="#2B66FF" stroke-width="4"/>
    <circle cx="420" cy="236" r="12" fill="#2B66FF"/>
    <circle cx="520" cy="236" r="28" fill="#0B1020" stroke="#2B66FF" stroke-width="4"/>
    <circle cx="520" cy="236" r="12" fill="#2B66FF"/>
  </g>

  <!-- UI tiles -->
  <g transform="translate(640 80)">
    <rect x="0" y="0" width="500" height="128" rx="22" fill="#0F172A" stroke="#2B66FF" stroke-opacity="0.3"/>
    <rect x="26" y="26" width="160" height="18" rx="9" fill="#8CB0FF" fill-opacity="0.35"/>
    <rect x="26" y="60" width="250" height="14" rx="7" fill="#8CB0FF" fill-opacity="0.18"/>
    <rect x="26" y="86" width="220" height="14" rx="7" fill="#8CB0FF" fill-opacity="0.14"/>
    <rect x="360" y="34" width="114" height="60" rx="16" fill="#2B66FF" fill-opacity="0.25" stroke="#2B66FF" stroke-opacity="0.35"/>
  </g>
</svg>

